<svg width="240" height="240" viewBox="0 0 240 240" xmlns="http://www.w3.org/2000/svg"><path d="M197.588 66.318c-2.683-6.16-8.491-11.276-16.717-12.971-16.22-3.345-29.962 8.005-33.663 15.661-3.246 6.699-1.489 11.818-.72 19.635.683 6.954-.747 19.886-3.793 25.806-3.046 5.92-8.21 11.664-12.363 15.537a67.274 67.274 0 0 1-4.06 3.707c-4.229-5.356-7.156-10.34-9.19-14.77-1.604-3.492-2.649-6.636-3.317-9.327-1.1-4.438-1.421-7.348-1.883-11.797-.653-6.284-.312-13.419.469-19.987.45-3.785 1.093-7.407 1.825-10.604.334-1.43.827-2.928 1.32-4.424a22.196 22.196 0 0 0 1.541-5.743l.044-.43v-1.896a9.084 9.084 0 0 0-.143-1.023c-.89-4.6-4.686-7.932-10.218-8.593-8.434-1.006-20.027 5.878-23.223 13.022-3.061 6.825-2.227 11.162-3.131 18.066-.612 4.687-3.469 16.02-13.183 26.922-7.069 7.932-17.712 12.062-23.082 21.195-4.07 6.915-5.006 20.846 2.597 25.542 13.295 8.215 31.213-4.425 29.157-23.602-.675-6.744.15-20.33 6.701-31.317C86.36 88.345 93.135 82.62 93.135 82.62c4.385 5.822 7.726 13.212 8.973 19.11.928 4.424 2.186 8.947 2.708 13.383 1.585 13.113-.865 30.686-3.359 41.36-.228 1.464-2.291 7.022-2.129 11.047.216 9.339 4.13 17.617 13.058 22.993a24.56 24.56 0 0 0 4.695 2.184c14.327 4.903 30.791-4.601 35.031-18.803l.062-.496c1.146-3.975 1.344-8.304.266-12.79-3.36-17.121-2.903-30.468 1.432-40.433 4.333-9.967 14.401-19.545 30.023-28.69 6.834-3.962 14.353-9.467 15.105-17.311v-2.6c-.154-1.646-.607-3.407-1.412-5.255" fill="#FF42BA" fill-rule="evenodd"/></svg>